<svg width="22" height="23" viewBox="0 0 22 23" fill="none" xmlns="http://www.w3.org/2000/svg">
<path d="M19.2225 15.0664H16.5275C15.3633 15.0664 14.6666 15.7631 14.6666 16.9272V19.6222C14.6666 20.7864 15.3633 21.4831 16.5275 21.4831H19.2225C20.3866 21.4831 21.0833 20.7864 21.0833 19.6222V16.9272C21.0833 15.7631 20.3866 15.0664 19.2225 15.0664ZM19.8275 17.3122L17.655 19.8514C17.5633 19.9522 17.4441 20.0164 17.3066 20.0164C17.3066 20.0164 17.2975 20.0164 17.2883 20.0164C17.1691 20.0164 17.0408 19.9706 16.9583 19.8789L15.95 18.8889C15.7666 18.7056 15.7666 18.4031 15.95 18.2106C16.1333 18.0272 16.4358 18.0272 16.6283 18.2106L17.2608 18.8431L19.1033 16.6981C19.2683 16.4964 19.5708 16.4689 19.7725 16.6431C19.9741 16.8172 19.9925 17.1197 19.8275 17.3122Z" fill="#1B2559"/>
<path d="M19.2225 15.0664H16.5275C15.3633 15.0664 14.6666 15.7631 14.6666 16.9272V19.6222C14.6666 20.7864 15.3633 21.4831 16.5275 21.4831H19.2225C20.3866 21.4831 21.0833 20.7864 21.0833 19.6222V16.9272C21.0833 15.7631 20.3866 15.0664 19.2225 15.0664ZM19.8275 17.3122L17.655 19.8514C17.5633 19.9522 17.4441 20.0164 17.3066 20.0164C17.3066 20.0164 17.2975 20.0164 17.2883 20.0164C17.1691 20.0164 17.0408 19.9706 16.9583 19.8789L15.95 18.8889C15.7666 18.7056 15.7666 18.4031 15.95 18.2106C16.1333 18.0272 16.4358 18.0272 16.6283 18.2106L17.2608 18.8431L19.1033 16.6981C19.2683 16.4964 19.5708 16.4689 19.7725 16.6431C19.9741 16.8172 19.9925 17.1197 19.8275 17.3122Z" fill="#1B2559"/>
<path d="M20.1392 7.00826C19.8825 4.50576 17.8934 2.51659 15.3909 2.25992C15.2075 2.24159 15.0242 2.23242 14.8409 2.23242H7.15921C6.97587 2.23242 6.79254 2.24159 6.60921 2.25992C4.10671 2.51659 2.11754 4.50576 1.86087 7.00826C1.84254 7.19159 1.83337 7.37492 1.83337 7.55825V15.2399C1.83337 15.4233 1.84254 15.6066 1.86087 15.7899C2.11754 18.2924 4.10671 20.2816 6.60921 20.5383C6.79254 20.5566 6.97587 20.5658 7.15921 20.5658H12.8334C13.3375 20.5658 13.75 20.1533 13.75 19.6491V16.9266C13.75 15.3958 14.9967 14.1491 16.5275 14.1491H19.25C19.7542 14.1491 20.1667 13.7366 20.1667 13.2324V7.55825C20.1667 7.37492 20.1575 7.19159 20.1392 7.00826ZM7.10421 12.7741C7.10421 13.1499 6.79254 13.4616 6.41671 13.4616C6.04087 13.4616 5.72921 13.1499 5.72921 12.7741V10.0241C5.72921 9.64825 6.04087 9.33659 6.41671 9.33659C6.79254 9.33659 7.10421 9.64825 7.10421 10.0241V12.7741ZM11.6875 12.7741C11.6875 13.1499 11.3759 13.4616 11 13.4616C10.6242 13.4616 10.3125 13.1499 10.3125 12.7741V10.0241C10.3125 9.64825 10.6242 9.33659 11 9.33659C11.3759 9.33659 11.6875 9.64825 11.6875 10.0241V12.7741Z" fill="#1B2559"/>
</svg>
