<svg width="24" height="25" viewBox="0 0 24 25" fill="none" xmlns="http://www.w3.org/2000/svg">
<path d="M15.8001 3.01029C15.3901 2.60029 14.6801 2.88029 14.6801 3.45029V6.94029C14.6801 8.40029 15.9201 9.61029 17.4301 9.61029C18.3801 9.62029 19.7001 9.62029 20.8301 9.62029C21.4001 9.62029 21.7001 8.95029 21.3001 8.55029C19.8601 7.10029 17.2801 4.49029 15.8001 3.01029Z" fill="#1B2559"/>
<path d="M20.5 10.9898H17.61C15.24 10.9898 13.31 9.0598 13.31 6.6898V3.7998C13.31 3.2498 12.86 2.7998 12.31 2.7998H8.07C4.99 2.7998 2.5 4.7998 2.5 8.3698V17.2298C2.5 20.7998 4.99 22.7998 8.07 22.7998H15.93C19.01 22.7998 21.5 20.7998 21.5 17.2298V11.9898C21.5 11.4398 21.05 10.9898 20.5 10.9898ZM11.5 18.5498H7.5C7.09 18.5498 6.75 18.2098 6.75 17.7998C6.75 17.3898 7.09 17.0498 7.5 17.0498H11.5C11.91 17.0498 12.25 17.3898 12.25 17.7998C12.25 18.2098 11.91 18.5498 11.5 18.5498ZM13.5 14.5498H7.5C7.09 14.5498 6.75 14.2098 6.75 13.7998C6.75 13.3898 7.09 13.0498 7.5 13.0498H13.5C13.91 13.0498 14.25 13.3898 14.25 13.7998C14.25 14.2098 13.91 14.5498 13.5 14.5498Z" fill="#1B2559"/>
</svg>
