<svg width="18" height="18" viewBox="0 0 18 18" fill="none" xmlns="http://www.w3.org/2000/svg">
<path d="M1.49963 3.00038C1.49963 1.34325 4.85776 0 9.00001 0C13.1423 0 16.5004 1.34325 16.5004 3.00038V4.5C16.5004 6.15712 13.1423 7.50037 9.00001 7.50037C4.85776 7.50037 1.49963 6.15712 1.49963 4.5V3.00038Z" fill="#1B2559"/>
<path d="M1.49963 7.12598V10.501C1.49963 12.1559 4.85776 13.5002 9.00001 13.5002C13.1423 13.5002 16.5004 12.157 16.5004 10.4999V7.12598C15.9938 7.49094 15.4425 7.78961 14.8601 8.01473C13.2863 8.64473 11.2129 9.00023 9.00001 9.00023C6.78826 9.00023 4.71488 8.6436 3.14101 8.01473C2.5586 7.78963 2.00737 7.49096 1.50076 7.12598H1.49963Z" fill="#1B2559"/>
<path d="M16.5004 13.1261C15.9937 13.4907 15.4425 13.789 14.8601 14.0137C13.2851 14.6437 11.2129 14.9993 8.99888 14.9993C6.78713 14.9993 4.71376 14.6437 3.13988 14.0137C2.55748 13.7886 2.00626 13.49 1.49963 13.125V14.9993C1.49963 16.6564 4.85776 17.9996 9.00001 17.9996C13.1423 17.9996 16.5004 16.6564 16.5004 14.9993V13.1261Z" fill="#1B2559"/>
</svg>
