<svg width="16" height="17" viewBox="0 0 16 17" fill="none" xmlns="http://www.w3.org/2000/svg">
<path d="M0.125 2.6123C0.125 2.16475 0.30279 1.73553 0.619257 1.41906C0.935725 1.10259 1.36495 0.924805 1.8125 0.924805H5.1875C5.63505 0.924805 6.06428 1.10259 6.38074 1.41906C6.69721 1.73553 6.875 2.16475 6.875 2.6123V5.9873C6.875 6.43486 6.69721 6.86408 6.38074 7.18055C6.06428 7.49701 5.63505 7.6748 5.1875 7.6748H1.8125C1.36495 7.6748 0.935725 7.49701 0.619257 7.18055C0.30279 6.86408 0.125 6.43486 0.125 5.9873V2.6123ZM9.125 2.6123C9.125 2.16475 9.30279 1.73553 9.61926 1.41906C9.93572 1.10259 10.3649 0.924805 10.8125 0.924805H14.1875C14.6351 0.924805 15.0643 1.10259 15.3807 1.41906C15.6972 1.73553 15.875 2.16475 15.875 2.6123V5.9873C15.875 6.43486 15.6972 6.86408 15.3807 7.18055C15.0643 7.49701 14.6351 7.6748 14.1875 7.6748H10.8125C10.3649 7.6748 9.93572 7.49701 9.61926 7.18055C9.30279 6.86408 9.125 6.43486 9.125 5.9873V2.6123ZM0.125 11.6123C0.125 11.1648 0.30279 10.7355 0.619257 10.4191C0.935725 10.1026 1.36495 9.9248 1.8125 9.9248H5.1875C5.63505 9.9248 6.06428 10.1026 6.38074 10.4191C6.69721 10.7355 6.875 11.1648 6.875 11.6123V14.9873C6.875 15.4349 6.69721 15.8641 6.38074 16.1805C6.06428 16.497 5.63505 16.6748 5.1875 16.6748H1.8125C1.36495 16.6748 0.935725 16.497 0.619257 16.1805C0.30279 15.8641 0.125 15.4349 0.125 14.9873V11.6123ZM9.125 11.6123C9.125 11.1648 9.30279 10.7355 9.61926 10.4191C9.93572 10.1026 10.3649 9.9248 10.8125 9.9248H14.1875C14.6351 9.9248 15.0643 10.1026 15.3807 10.4191C15.6972 10.7355 15.875 11.1648 15.875 11.6123V14.9873C15.875 15.4349 15.6972 15.8641 15.3807 16.1805C15.0643 16.497 14.6351 16.6748 14.1875 16.6748H10.8125C10.3649 16.6748 9.93572 16.497 9.61926 16.1805C9.30279 15.8641 9.125 15.4349 9.125 14.9873V11.6123Z" fill="#1B2559"/>
</svg>
