<svg width="24" height="25" viewBox="0 0 24 25" fill="none" xmlns="http://www.w3.org/2000/svg">
<path d="M14.85 4.54941V8.34941H13.35V4.54941C13.35 4.27941 13.11 4.14941 12.95 4.14941C12.9 4.14941 12.85 4.15941 12.8 4.17941L4.87 7.16941C4.34 7.36941 4 7.86941 4 8.43941V9.10941C3.09 9.78941 2.5 10.8794 2.5 12.1094V8.43941C2.5 7.24941 3.23 6.18941 4.34 5.76941L12.28 2.76941C12.5 2.68941 12.73 2.64941 12.95 2.64941C13.95 2.64941 14.85 3.45941 14.85 4.54941Z" fill="#1B2559"/>
<path d="M21.5001 15.0996V16.0996C21.5001 16.3696 21.2901 16.5896 21.0101 16.5996H19.5501C19.0201 16.5996 18.5401 16.2096 18.5001 15.6896C18.4701 15.3796 18.5901 15.0896 18.7901 14.8896C18.9701 14.6996 19.2201 14.5996 19.4901 14.5996H21.0001C21.2901 14.6096 21.5001 14.8296 21.5001 15.0996Z" fill="#1B2559"/>
<path d="M19.48 13.5496H20.5C21.05 13.5496 21.5 13.0996 21.5 12.5496V12.1096C21.5 10.0396 19.81 8.34961 17.74 8.34961H6.26C5.41 8.34961 4.63 8.62961 4 9.10961C3.09 9.78961 2.5 10.8796 2.5 12.1096V18.8396C2.5 20.9096 4.19 22.5996 6.26 22.5996H17.74C19.81 22.5996 21.5 20.9096 21.5 18.8396V18.6496C21.5 18.0996 21.05 17.6496 20.5 17.6496H19.63C18.67 17.6496 17.75 17.0596 17.5 16.1296C17.29 15.3696 17.54 14.6396 18.04 14.1496C18.41 13.7696 18.92 13.5496 19.48 13.5496ZM14 13.3496H7C6.59 13.3496 6.25 13.0096 6.25 12.5996C6.25 12.1896 6.59 11.8496 7 11.8496H14C14.41 11.8496 14.75 12.1896 14.75 12.5996C14.75 13.0096 14.41 13.3496 14 13.3496Z" fill="#1B2559"/>
</svg>
