<svg width="13" height="11" viewBox="0 0 13 11" fill="none" xmlns="http://www.w3.org/2000/svg">
<path fill-rule="evenodd" clip-rule="evenodd" d="M13 5.40036C13 5.59927 12.921 5.79004 12.7803 5.93069C12.6397 6.07134 12.4489 6.15036 12.25 6.15036H3.5605L6.781 9.36936C6.85073 9.43909 6.90604 9.52188 6.94378 9.61299C6.98152 9.70409 7.00094 9.80175 7.00094 9.90036C7.00094 9.99898 6.98152 10.0966 6.94378 10.1877C6.90604 10.2788 6.85073 10.3616 6.781 10.4314C6.71127 10.5011 6.62848 10.5564 6.53737 10.5941C6.44626 10.6319 6.34861 10.6513 6.25 10.6513C6.15138 10.6513 6.05373 10.6319 5.96262 10.5941C5.87151 10.5564 5.78873 10.5011 5.719 10.4314L1.219 5.93136C1.14915 5.86169 1.09374 5.77893 1.05593 5.68781C1.01812 5.59669 0.998657 5.49901 0.998657 5.40036C0.998657 5.30171 1.01812 5.20403 1.05593 5.11291C1.09374 5.02179 1.14915 4.93903 1.219 4.86936L5.719 0.369362C5.85983 0.228532 6.05083 0.149414 6.25 0.149414C6.44916 0.149414 6.64017 0.228532 6.781 0.369362C6.92183 0.510192 7.00094 0.701198 7.00094 0.900362C7.00094 1.09953 6.92183 1.29053 6.781 1.43136L3.5605 4.65036H12.25C12.4489 4.65036 12.6397 4.72938 12.7803 4.87003C12.921 5.01068 13 5.20145 13 5.40036Z" fill="#A1A0BD"/>
</svg>
