<svg width="21" height="19" viewBox="0 0 21 19" fill="none" xmlns="http://www.w3.org/2000/svg">
<path d="M12 0.200195C7.03 0.200195 3 4.2302 3 9.2002H0L3.89 13.0902L3.96 13.2302L8 9.2002H5C5 5.3302 8.13 2.2002 12 2.2002C15.87 2.2002 19 5.3302 19 9.2002C19 13.0702 15.87 16.2002 12 16.2002C10.07 16.2002 8.32 15.4102 7.06 14.1402L5.64 15.5602C7.27 17.1902 9.51 18.2002 12 18.2002C16.97 18.2002 21 14.1702 21 9.2002C21 4.2302 16.97 0.200195 12 0.200195ZM11 5.2002V10.2002L15.25 12.7202L16.02 11.4402L12.5 9.35019V5.2002H11Z" fill="#1B2559"/>
</svg>
