<svg width="21" height="20" viewBox="0 0 21 20" fill="none" xmlns="http://www.w3.org/2000/svg">
<path d="M18.1 6.82003C16.29 6.82003 15.55 5.54003 16.45 3.97003C16.97 3.06003 16.66 1.90003 15.75 1.38003L14.02 0.390034C13.23 -0.0799659 12.21 0.200034 11.74 0.990034L11.63 1.18003C10.73 2.75003 9.25 2.75003 8.34 1.18003L8.23 0.990034C7.78 0.200034 6.76 -0.0799659 5.97 0.390034L4.24 1.38003C3.33 1.90003 3.02 3.07003 3.54 3.98003C4.45 5.54003 3.71 6.82003 1.9 6.82003C0.86 6.82003 0 7.67003 0 8.72003V10.48C0 11.52 0.85 12.38 1.9 12.38C3.71 12.38 4.45 13.66 3.54 15.23C3.02 16.14 3.33 17.3 4.24 17.82L5.97 18.81C6.76 19.28 7.78 19 8.25 18.21L8.36 18.02C9.26 16.45 10.74 16.45 11.65 18.02L11.76 18.21C12.23 19 13.25 19.28 14.04 18.81L15.77 17.82C16.68 17.3 16.99 16.13 16.47 15.23C15.56 13.66 16.3 12.38 18.11 12.38C19.15 12.38 20.01 11.53 20.01 10.48V8.72003C20 7.68003 19.15 6.82003 18.1 6.82003ZM10 12.85C8.21 12.85 6.75 11.39 6.75 9.60003C6.75 7.81003 8.21 6.35003 10 6.35003C11.79 6.35003 13.25 7.81003 13.25 9.60003C13.25 11.39 11.79 12.85 10 12.85Z" fill="#1B2559"/>
</svg>
