<svg width="24" height="25" viewBox="0 0 24 25" fill="none" xmlns="http://www.w3.org/2000/svg">
<path d="M17.53 8.16941C17.46 8.15941 17.39 8.15941 17.32 8.16941C15.77 8.11941 14.54 6.84941 14.54 5.28941C14.54 3.69941 15.83 2.39941 17.43 2.39941C19.02 2.39941 20.32 3.68941 20.32 5.28941C20.31 6.84941 19.08 8.11941 17.53 8.16941Z" fill="#1B2559"/>
<path d="M20.79 15.0998C19.67 15.8498 18.1 16.1298 16.65 15.9398C17.03 15.1198 17.23 14.2098 17.24 13.2498C17.24 12.2498 17.02 11.2998 16.6 10.4698C18.08 10.2698 19.65 10.5498 20.78 11.2998C22.36 12.3398 22.36 14.0498 20.79 15.0998Z" fill="#1B2559"/>
<path d="M6.44003 8.16941C6.51003 8.15941 6.58003 8.15941 6.65003 8.16941C8.20003 8.11941 9.43003 6.84941 9.43003 5.28941C9.43003 3.68941 8.14003 2.39941 6.54003 2.39941C4.95003 2.39941 3.66003 3.68941 3.66003 5.28941C3.66003 6.84941 4.89003 8.11941 6.44003 8.16941Z" fill="#1B2559"/>
<path d="M6.55 13.249C6.55 14.219 6.75999 15.139 7.14 15.969C5.73 16.119 4.26 15.819 3.18 15.109C1.6 14.059 1.6 12.349 3.18 11.299C4.25 10.579 5.75999 10.289 7.18 10.449C6.77 11.289 6.55 12.239 6.55 13.249Z" fill="#1B2559"/>
<path d="M12.12 16.2694C12.04 16.2594 11.95 16.2594 11.86 16.2694C10.02 16.2094 8.55005 14.6994 8.55005 12.8394C8.56005 10.9394 10.09 9.39941 12 9.39941C13.9 9.39941 15.44 10.9394 15.44 12.8394C15.43 14.6994 13.97 16.2094 12.12 16.2694Z" fill="#1B2559"/>
<path d="M8.87005 18.3391C7.36005 19.3491 7.36005 21.0091 8.87005 22.0091C10.59 23.1591 13.41 23.1591 15.13 22.0091C16.64 20.9991 16.64 19.3391 15.13 18.3391C13.42 17.1891 10.6 17.1891 8.87005 18.3391Z" fill="#1B2559"/>
</svg>
