<svg width="36" height="36" viewBox="0 0 36 36" fill="none" xmlns="http://www.w3.org/2000/svg">
<g clip-path="url(#clip0_1104_509160)">
<path d="M22.19 8H13.81C10.17 8 8 10.17 8 13.81V22.19C8 25 9.29 26.93 11.56 27.66C12.22 27.89 12.98 28 13.81 28H22.19C23.02 28 23.78 27.89 24.44 27.66C26.71 26.93 28 25 28 22.19V13.81C28 10.17 25.83 8 22.19 8ZM26.5 22.19C26.5 24.33 25.66 25.68 23.97 26.24C23 24.33 20.7 22.97 18 22.97C15.3 22.97 13.01 24.32 12.03 26.24H12.02C10.35 25.7 9.5 24.34 9.5 22.2V13.81C9.5 10.99 10.99 9.5 13.81 9.5H22.19C25.01 9.5 26.5 10.99 26.5 13.81V22.19Z" fill="#292D32"/>
<path d="M17.9999 14C16.0199 14 14.4199 15.6 14.4199 17.58C14.4199 19.56 16.0199 21.17 17.9999 21.17C19.9799 21.17 21.5799 19.56 21.5799 17.58C21.5799 15.6 19.9799 14 17.9999 14Z" fill="#292D32"/>
</g>
<defs>
<clipPath id="clip0_1104_509160">
<rect width="36" height="36" fill="white"/>
</clipPath>
</defs>
</svg>
