<svg width="22" height="22" viewBox="0 0 22 22" fill="none" xmlns="http://www.w3.org/2000/svg">
<path d="M20.0254 12.041V13.8257C20.0254 18.2874 18.2408 20.072 13.7791 20.072H8.42506C3.96338 20.072 2.17871 18.2874 2.17871 13.8257V12.4693" stroke="#E12179" stroke-width="1.44989" stroke-linecap="round" stroke-linejoin="round"/>
<path d="M10.2097 2.22266H8.42506C3.96338 2.22266 2.17871 4.00733 2.17871 8.46901" stroke="#E12179" stroke-width="1.44989" stroke-linecap="round" stroke-linejoin="round"/>
<path d="M18.1783 8.47945L19.1153 7.5425C20.3288 6.32893 20.8999 4.91903 19.1153 3.13436C17.3306 1.34969 15.9207 1.92079 14.7071 3.13436L7.67551 10.166C7.40781 10.4337 7.14011 10.9601 7.08657 11.3439L6.70287 14.0298C6.56009 15.0024 7.24719 15.6806 8.21984 15.5468L10.9058 15.163C11.2805 15.1095 11.807 14.8418 12.0837 14.5741L14.9213 11.7365L15.5727 11.0851" stroke="#E12179" stroke-width="1.44989" stroke-miterlimit="10" stroke-linecap="round" stroke-linejoin="round"/>
<path d="M13.6987 4.14258C14.2966 6.27526 15.9653 7.94393 18.1069 8.55072" stroke="#E12179" stroke-width="1.44989" stroke-miterlimit="10" stroke-linecap="round" stroke-linejoin="round"/>
</svg>
