<svg width="17" height="17" viewBox="0 0 17 17" fill="none" xmlns="http://www.w3.org/2000/svg">
<path d="M14.2271 13.293C14.2271 12.9263 13.9271 12.6263 13.5605 12.6263H3.56047C3.1938 12.6263 2.8938 12.9263 2.8938 13.293C2.8938 13.6596 3.1938 13.9596 3.56047 13.9596H13.5605C13.9271 13.9596 14.2271 13.6596 14.2271 13.293Z" fill="#3B3E45"/>
<path d="M11.5605 8.6263C11.5605 8.25964 11.2605 7.95964 10.8938 7.95964H3.56047C3.1938 7.95964 2.8938 8.25964 2.8938 8.6263C2.8938 8.99297 3.1938 9.29297 3.56047 9.29297H10.8938C11.2605 9.29297 11.5605 8.99297 11.5605 8.6263Z" fill="#3B3E45"/>
<path d="M8.22713 3.29297C8.5938 3.29297 8.8938 3.59297 8.8938 3.95964C8.8938 4.3263 8.5938 4.6263 8.22713 4.6263H3.56047C3.1938 4.6263 2.8938 4.3263 2.8938 3.95964C2.8938 3.59297 3.1938 3.29297 3.56047 3.29297H8.22713Z" fill="#3B3E45"/>
</svg>
