<svg width="117" height="117" viewBox="0 0 117 117" fill="none" xmlns="http://www.w3.org/2000/svg">
<path opacity="0.2" d="M58.5 107C85.2858 107 107 85.2858 107 58.5C107 31.7142 85.2858 10 58.5 10C31.7142 10 10 31.7142 10 58.5C10 85.2858 31.7142 107 58.5 107Z" fill="#27AE60"/>
<path d="M58.4999 97.5515C80.0678 97.5515 97.552 80.0673 97.552 58.4994C97.552 36.9315 80.0678 19.4473 58.4999 19.4473C36.932 19.4473 19.4478 36.9315 19.4478 58.4994C19.4478 80.0673 36.932 97.5515 58.4999 97.5515Z" fill="#27AE60"/>
<path d="M53.9453 75.1969L40.1821 57.502L48.1859 51.2769L54.7019 59.6551L76.7152 36.418L84.0767 43.3913L53.9453 75.1969Z" fill="white"/>
</svg>
