<svg width="36" height="36" viewBox="0 0 36 36" fill="none" xmlns="http://www.w3.org/2000/svg">
<g clip-path="url(#clip0_1104_509128)">
<path d="M22.19 8H13.81C10.17 8 8 10.17 8 13.81V22.18C8 25.83 10.17 28 13.81 28H22.18C25.82 28 27.99 25.83 27.99 22.19V13.81C28 10.17 25.83 8 22.19 8ZM18 24.01C14.83 24.01 12.25 21.43 12.25 18.26C12.25 17.12 12.58 16.01 13.22 15.07C13.45 14.72 13.92 14.63 14.26 14.86C14.6 15.09 14.7 15.56 14.46 15.9C14 16.6 13.75 17.42 13.75 18.26C13.75 20.6 15.66 22.51 18 22.51C20.34 22.51 22.25 20.6 22.25 18.26C22.25 15.92 20.34 14.01 18 14.01C17.81 14.01 17.63 14.03 17.44 14.05L18 14.46C18.33 14.7 18.41 15.17 18.16 15.51C18.01 15.71 17.78 15.82 17.55 15.82C17.4 15.82 17.24 15.77 17.11 15.68L15.17 14.25C15.17 14.25 15.16 14.24 15.15 14.23C15.14 14.22 15.13 14.22 15.12 14.21C15.09 14.19 15.08 14.15 15.05 14.12C15.02 14.08 14.99 14.05 14.96 14C14.94 13.96 14.93 13.91 14.91 13.87C14.9 13.82 14.88 13.78 14.88 13.73C14.88 13.68 14.88 13.64 14.89 13.59C14.89 13.54 14.89 13.5 14.91 13.45C14.91 13.4 14.94 13.36 14.96 13.31C14.98 13.28 14.98 13.24 15.01 13.2C15.02 13.2 15.03 13.19 15.04 13.18C15.05 13.17 15.05 13.16 15.06 13.15L16.73 11.24C17 10.93 17.48 10.89 17.79 11.17C18.1 11.44 18.13 11.92 17.86 12.23L17.58 12.55C17.72 12.54 17.86 12.52 18.01 12.52C21.18 12.52 23.76 15.1 23.76 18.27C23.76 21.44 21.17 24.01 18 24.01Z" fill="#292D32"/>
</g>
<defs>
<clipPath id="clip0_1104_509128">
<rect width="36" height="36" fill="white"/>
</clipPath>
</defs>
</svg>
