<svg width="36" height="36" viewBox="0 0 36 36" fill="none" xmlns="http://www.w3.org/2000/svg">
<g clip-path="url(#clip0_1104_509149)">
<path d="M20 19.25H16C15.59 19.25 15.25 19.59 15.25 20C15.25 20.41 15.59 20.75 16 20.75H20C20.41 20.75 20.75 20.41 20.75 20C20.75 19.59 20.41 19.25 20 19.25Z" fill="black"/>
<path d="M16 16.75H18C18.41 16.75 18.75 16.41 18.75 16C18.75 15.59 18.41 15.25 18 15.25H16C15.59 15.25 15.25 15.59 15.25 16C15.25 16.41 15.59 16.75 16 16.75Z" fill="black"/>
<path d="M22.1898 8H13.8198C10.1798 8 8.00977 10.17 8.00977 13.81V22.18C8.00977 25.82 10.1798 27.99 13.8198 27.99H22.1898C25.8298 27.99 27.9998 25.82 27.9998 22.18V13.81C27.9998 10.17 25.8298 8 22.1898 8ZM23.9998 21C23.9998 23 22.9998 24 20.9998 24H14.9998C12.9998 24 11.9998 23 11.9998 21V15C11.9998 13 12.9998 12 14.9998 12H18.9998C20.9998 12 21.9998 13 21.9998 15V16C21.9998 16.55 22.4498 17 22.9998 17C23.5498 17 23.9998 17.45 23.9998 18V21Z" fill="black"/>
</g>
<defs>
<clipPath id="clip0_1104_509149">
<rect width="36" height="36" fill="white"/>
</clipPath>
</defs>
</svg>
