<svg width="36" height="36" viewBox="0 0 36 36" fill="none" xmlns="http://www.w3.org/2000/svg">
<g clip-path="url(#clip0_135_1798)">
<path d="M28 15.75C27.59 15.75 27.25 15.41 27.25 15V13C27.25 10.42 25.58 8.75 23 8.75H13C10.42 8.75 8.75 10.42 8.75 13V15C8.75 15.41 8.41 15.75 8 15.75C7.59 15.75 7.25 15.41 7.25 15V13C7.25 9.56 9.56 7.25 13 7.25H23C26.44 7.25 28.75 9.56 28.75 13V15C28.75 15.41 28.41 15.75 28 15.75Z" fill="#292D32"/>
<path d="M23 28.75H13C9.56 28.75 7.25 26.44 7.25 23V21C7.25 20.59 7.59 20.25 8 20.25C8.41 20.25 8.75 20.59 8.75 21V23C8.75 25.58 10.42 27.25 13 27.25H23C25.58 27.25 27.25 25.58 27.25 23V21C27.25 20.59 27.59 20.25 28 20.25C28.41 20.25 28.75 20.59 28.75 21V23C28.75 26.44 26.44 28.75 23 28.75Z" fill="#292D32"/>
<path d="M28 18.75H8C7.59 18.75 7.25 18.41 7.25 18C7.25 17.59 7.59 17.25 8 17.25H28C28.41 17.25 28.75 17.59 28.75 18C28.75 18.41 28.41 18.75 28 18.75Z" fill="#292D32"/>
<path d="M22.5 15H13.5C13.22 15 13 14.78 13 14.5V12.5C13 11.67 13.67 11 14.5 11H21.5C22.33 11 23 11.67 23 12.5V14.5C23 14.78 22.78 15 22.5 15Z" fill="#292D32"/>
<path d="M22.5 21H13.5C13.22 21 13 21.22 13 21.5V23.5C13 24.33 13.67 25 14.5 25H21.5C22.32 25 23 24.33 23 23.5V21.5C23 21.22 22.78 21 22.5 21Z" fill="#292D32"/>
</g>
<defs>
<clipPath id="clip0_135_1798">
<rect width="36" height="36" fill="white"/>
</clipPath>
</defs>
</svg>
