<svg width="36" height="36" viewBox="0 0 36 36" fill="none" xmlns="http://www.w3.org/2000/svg">
<g clip-path="url(#clip0_1104_509139)">
<path d="M23.62 16.7501C23.19 16.7501 22.85 16.4001 22.85 15.9801C22.85 15.6101 22.48 14.8401 21.86 14.1701C21.25 13.5201 20.58 13.1401 20.02 13.1401C19.59 13.1401 19.25 12.7901 19.25 12.3701C19.25 11.9501 19.6 11.6001 20.02 11.6001C21.02 11.6001 22.07 12.1401 22.99 13.1101C23.85 14.0201 24.4 15.1501 24.4 15.9701C24.4 16.4001 24.05 16.7501 23.62 16.7501Z" fill="#292D32"/>
<path d="M27.2298 16.75C26.7998 16.75 26.4598 16.4 26.4598 15.98C26.4598 12.43 23.5698 9.55 20.0298 9.55C19.5998 9.55 19.2598 9.2 19.2598 8.78C19.2598 8.36 19.5998 8 20.0198 8C24.4198 8 27.9998 11.58 27.9998 15.98C27.9998 16.4 27.6498 16.75 27.2298 16.75Z" fill="#292D32"/>
<path d="M17.05 20.95L15.2 22.8C14.81 23.19 14.19 23.19 13.79 22.81C13.68 22.7 13.57 22.6 13.46 22.49C12.43 21.45 11.5 20.36 10.67 19.22C9.85 18.08 9.19 16.94 8.71 15.81C8.24 14.67 8 13.58 8 12.54C8 11.86 8.12 11.21 8.36 10.61C8.6 10 8.98 9.44 9.51 8.94C10.15 8.31 10.85 8 11.59 8C11.87 8 12.15 8.06 12.4 8.18C12.66 8.3 12.89 8.48 13.07 8.74L15.39 12.01C15.57 12.26 15.7 12.49 15.79 12.71C15.88 12.92 15.93 13.13 15.93 13.32C15.93 13.56 15.86 13.8 15.72 14.03C15.59 14.26 15.4 14.5 15.16 14.74L14.4 15.53C14.29 15.64 14.24 15.77 14.24 15.93C14.24 16.01 14.25 16.08 14.27 16.16C14.3 16.24 14.33 16.3 14.35 16.36C14.53 16.69 14.84 17.12 15.28 17.64C15.73 18.16 16.21 18.69 16.73 19.22C16.83 19.32 16.94 19.42 17.04 19.52C17.44 19.91 17.45 20.55 17.05 20.95Z" fill="#292D32"/>
<path d="M27.9696 24.33C27.9696 24.61 27.9196 24.9 27.8196 25.18C27.7896 25.26 27.7596 25.34 27.7196 25.42C27.5496 25.78 27.3296 26.12 27.0396 26.44C26.5496 26.98 26.0096 27.37 25.3996 27.62C25.3896 27.62 25.3796 27.63 25.3696 27.63C24.7796 27.87 24.1396 28 23.4496 28C22.4296 28 21.3396 27.76 20.1896 27.27C19.0396 26.78 17.8896 26.12 16.7496 25.29C16.3596 25 15.9696 24.71 15.5996 24.4L18.8696 21.13C19.1496 21.34 19.3996 21.5 19.6096 21.61C19.6596 21.63 19.7196 21.66 19.7896 21.69C19.8696 21.72 19.9496 21.73 20.0396 21.73C20.2096 21.73 20.3396 21.67 20.4496 21.56L21.2096 20.81C21.4596 20.56 21.6996 20.37 21.9296 20.25C22.1596 20.11 22.3896 20.04 22.6396 20.04C22.8296 20.04 23.0296 20.08 23.2496 20.17C23.4696 20.26 23.6996 20.39 23.9496 20.56L27.2596 22.91C27.5196 23.09 27.6996 23.3 27.8096 23.55C27.9096 23.8 27.9696 24.05 27.9696 24.33Z" fill="#292D32"/>
</g>
<defs>
<clipPath id="clip0_1104_509139">
<rect width="36" height="36" fill="white"/>
</clipPath>
</defs>
</svg>
