<svg width="36" height="36" viewBox="0 0 36 36" fill="none" xmlns="http://www.w3.org/2000/svg">
<g clip-path="url(#clip0_135_1802)">
<path d="M28 15.75C27.59 15.75 27.25 15.41 27.25 15V13C27.25 10.42 25.58 8.75 23 8.75H21C20.59 8.75 20.25 8.41 20.25 8C20.25 7.59 20.59 7.25 21 7.25H23C26.44 7.25 28.75 9.56 28.75 13V15C28.75 15.41 28.41 15.75 28 15.75Z" fill="#292D32"/>
<path d="M8 15.75C7.59 15.75 7.25 15.41 7.25 15V13C7.25 9.56 9.56 7.25 13 7.25H15C15.41 7.25 15.75 7.59 15.75 8C15.75 8.41 15.41 8.75 15 8.75H13C10.42 8.75 8.75 10.42 8.75 13V15C8.75 15.41 8.41 15.75 8 15.75Z" fill="#292D32"/>
<path d="M23 28.75H21C20.59 28.75 20.25 28.41 20.25 28C20.25 27.59 20.59 27.25 21 27.25H23C25.58 27.25 27.25 25.58 27.25 23V21C27.25 20.59 27.59 20.25 28 20.25C28.41 20.25 28.75 20.59 28.75 21V23C28.75 26.44 26.44 28.75 23 28.75Z" fill="#292D32"/>
<path d="M15 28.75H13C9.56 28.75 7.25 26.44 7.25 23V21C7.25 20.59 7.59 20.25 8 20.25C8.41 20.25 8.75 20.59 8.75 21V23C8.75 25.58 10.42 27.25 13 27.25H15C15.41 27.25 15.75 27.59 15.75 28C15.75 28.41 15.41 28.75 15 28.75Z" fill="#292D32"/>
<path d="M17.9996 15.87C17.5096 15.87 17.0996 16.27 17.0996 16.77V19.24C17.0996 19.74 17.4996 20.14 17.9996 20.14C18.4996 20.14 18.8996 19.74 18.8996 19.24V16.77C18.8996 16.27 18.4896 15.87 17.9996 15.87Z" fill="#292D32"/>
<path d="M21.5298 13.4001C21.1898 13.0601 20.7998 12.7701 20.3798 12.5301C20.2398 12.4601 20.0898 12.3901 19.9398 12.3201C19.7898 12.2601 19.6398 12.2001 19.4798 12.1601C19.3198 12.1101 19.1598 12.0701 18.9998 12.0301C18.9898 12.0301 18.9698 12.0301 18.9598 12.0201C18.6498 11.9601 18.3298 11.9301 18.0098 11.9301H17.9898C17.6698 11.9301 17.3598 11.9601 17.0498 12.0201C17.0098 12.0301 16.9698 12.0301 16.9398 12.0501C16.7998 12.0801 16.6598 12.1101 16.5198 12.1601C16.3498 12.2001 16.1798 12.2701 16.0098 12.3401C15.8798 12.4001 15.7498 12.4701 15.6298 12.5301C15.4798 12.6101 15.3498 12.7001 15.2098 12.7901C14.9498 12.9701 14.6998 13.1701 14.4698 13.4001C14.3598 13.5101 14.2498 13.6301 14.1498 13.7501C14.0498 13.8801 13.9498 14.0001 13.8598 14.1401C13.7698 14.2701 13.6898 14.4101 13.6098 14.5501C13.2298 15.2601 13.0098 16.0701 13.0098 16.9301V19.0701C13.0098 20.8001 13.8898 22.3201 15.2098 23.2101C15.3298 23.3001 15.4598 23.3701 15.5898 23.4501L16.1398 23.7101C16.4198 23.8201 16.7098 23.9101 16.9998 23.9701C17.3198 24.0301 17.6498 24.0701 17.9898 24.0701C17.9998 24.0701 17.9998 24.0701 18.0098 24.0701C18.3498 24.0701 18.6798 24.0301 18.9998 23.9701C19.2998 23.9101 19.5898 23.8201 19.8698 23.7101C20.0598 23.6301 20.2398 23.5401 20.4098 23.4501C21.9498 22.6001 22.9898 20.9501 22.9898 19.0701V16.9301C22.9898 15.5501 22.4298 14.3001 21.5298 13.4001ZM20.3998 19.2401C20.3998 20.5601 19.3198 21.6401 17.9998 21.6401C16.6798 21.6401 15.5998 20.5601 15.5998 19.2401V16.7701C15.5998 15.4501 16.6798 14.3701 17.9998 14.3701C19.3198 14.3701 20.3998 15.4501 20.3998 16.7701V19.2401Z" fill="#292D32"/>
</g>
<defs>
<clipPath id="clip0_135_1802">
<rect width="36" height="36" fill="white"/>
</clipPath>
</defs>
</svg>
