<svg width="36" height="36" viewBox="0 0 36 36" fill="none" xmlns="http://www.w3.org/2000/svg">
<g clip-path="url(#clip0_1104_508971)">
<path d="M21.7997 8.20999C21.3897 7.79999 20.6797 8.07999 20.6797 8.64999V12.14C20.6797 13.6 21.9197 14.81 23.4297 14.81C24.3797 14.82 25.6997 14.82 26.8297 14.82C27.3997 14.82 27.6997 14.15 27.2997 13.75C25.8597 12.3 23.2797 9.68999 21.7997 8.20999Z" fill="#292D32"/>
<path d="M26.5 16.19H23.61C21.24 16.19 19.31 14.26 19.31 11.89V9C19.31 8.45 18.86 8 18.31 8H14.07C10.99 8 8.5 10 8.5 13.57V22.43C8.5 26 10.99 28 14.07 28H21.93C25.01 28 27.5 26 27.5 22.43V17.19C27.5 16.64 27.05 16.19 26.5 16.19ZM17.5 23.75H13.5C13.09 23.75 12.75 23.41 12.75 23C12.75 22.59 13.09 22.25 13.5 22.25H17.5C17.91 22.25 18.25 22.59 18.25 23C18.25 23.41 17.91 23.75 17.5 23.75ZM19.5 19.75H13.5C13.09 19.75 12.75 19.41 12.75 19C12.75 18.59 13.09 18.25 13.5 18.25H19.5C19.91 18.25 20.25 18.59 20.25 19C20.25 19.41 19.91 19.75 19.5 19.75Z" fill="#292D32"/>
</g>
<defs>
<clipPath id="clip0_1104_508971">
<rect width="36" height="36" fill="white"/>
</clipPath>
</defs>
</svg>
