<svg width="36" height="36" viewBox="0 0 36 36" fill="none" xmlns="http://www.w3.org/2000/svg">
<g clip-path="url(#clip0_1104_508982)">
<path d="M22 8H14C10.5 8 9 10 9 13V23C9 26 10.5 28 14 28H22C25.5 28 27 26 27 23V13C27 10 25.5 8 22 8ZM16.53 22.47C16.82 22.76 16.82 23.24 16.53 23.53C16.38 23.68 16.19 23.75 16 23.75C15.81 23.75 15.62 23.68 15.47 23.53L13.47 21.53C13.18 21.24 13.18 20.76 13.47 20.47L15.47 18.47C15.76 18.18 16.24 18.18 16.53 18.47C16.82 18.76 16.82 19.24 16.53 19.53L15.06 21L16.53 22.47ZM22.53 21.53L20.53 23.53C20.38 23.68 20.19 23.75 20 23.75C19.81 23.75 19.62 23.68 19.47 23.53C19.18 23.24 19.18 22.76 19.47 22.47L20.94 21L19.47 19.53C19.18 19.24 19.18 18.76 19.47 18.47C19.76 18.18 20.24 18.18 20.53 18.47L22.53 20.47C22.82 20.76 22.82 21.24 22.53 21.53ZM24.5 15.25H22.5C20.98 15.25 19.75 14.02 19.75 12.5V10.5C19.75 10.09 20.09 9.75 20.5 9.75C20.91 9.75 21.25 10.09 21.25 10.5V12.5C21.25 13.19 21.81 13.75 22.5 13.75H24.5C24.91 13.75 25.25 14.09 25.25 14.5C25.25 14.91 24.91 15.25 24.5 15.25Z" fill="#292D32"/>
</g>
<defs>
<clipPath id="clip0_1104_508982">
<rect width="36" height="36" fill="white"/>
</clipPath>
</defs>
</svg>
