<svg width="36" height="36" viewBox="0 0 36 36" fill="none" xmlns="http://www.w3.org/2000/svg">
<g clip-path="url(#clip0_1104_508815)">
<path d="M25.54 12.54L22.47 9.47C21.53 8.53 20.26 8 18.93 8H14C11 8 9 10 9 13V23C9 26 11 28 14 28H22C25 28 27 26 27 23V16.07C27 14.74 26.47 13.47 25.54 12.54ZM17.5 24C17.5 24.2761 17.2761 24.5 17 24.5H16C14.35 24.5 13 23.15 13 21.5V21C13 20.7239 13.2239 20.5 13.5 20.5H17.25C17.39 20.5 17.5 20.61 17.5 20.75V24ZM17.5 19.25C17.5 19.39 17.39 19.5 17.25 19.5H13.5C13.2239 19.5 13 19.2761 13 19V18.5C13 16.85 14.35 15.5 16 15.5H17C17.2761 15.5 17.5 15.7239 17.5 16V19.25ZM23 21.5C23 23.15 21.65 24.5 20 24.5H19C18.7239 24.5 18.5 24.2761 18.5 24V20.75C18.5 20.61 18.61 20.5 18.75 20.5H22.5C22.7761 20.5 23 20.7239 23 21V21.5ZM23 19C23 19.2761 22.7761 19.5 22.5 19.5H18.75C18.61 19.5 18.5 19.39 18.5 19.25V16C18.5 15.7239 18.7239 15.5 19 15.5H20C21.65 15.5 23 16.85 23 18.5V19Z" fill="#292D32"/>
</g>
<defs>
<clipPath id="clip0_1104_508815">
<rect width="36" height="36" fill="white"/>
</clipPath>
</defs>
</svg>
