<svg width="36" height="36" viewBox="0 0 36 36" fill="none" xmlns="http://www.w3.org/2000/svg">
<g clip-path="url(#clip0_1479_32634)">
<path d="M22.19 8H13.81C10.17 8 8 10.17 8 13.81V22.18C8 25.83 10.17 28 13.81 28H22.18C25.82 28 27.99 25.83 27.99 22.19V13.81C28 10.17 25.83 8 22.19 8ZM22.88 20.33C22.88 20.42 22.86 20.51 22.83 20.6C22.76 20.77 22.62 20.91 22.45 20.98C22.36 21.02 22.27 21.03 22.18 21.03H20.32C19.93 21.03 19.62 20.72 19.62 20.33C19.62 19.94 19.93 19.63 20.32 19.63H20.5L18.39 17.52L17.37 19.04C17.25 19.21 17.07 19.33 16.86 19.35C16.65 19.37 16.45 19.3 16.3 19.15L13.32 16.17C13.05 15.9 13.05 15.46 13.32 15.18C13.59 14.9 14.03 14.91 14.31 15.18L16.69 17.56L17.71 16.04C17.83 15.87 18.01 15.75 18.22 15.73C18.44 15.71 18.63 15.78 18.78 15.93L21.5 18.65V18.47C21.5 18.08 21.81 17.77 22.2 17.77C22.59 17.77 22.9 18.08 22.9 18.47V20.33H22.88Z" fill="#292D32"/>
</g>
<defs>
<clipPath id="clip0_1479_32634">
<rect width="36" height="36" fill="white"/>
</clipPath>
</defs>
</svg>
