<svg width="36" height="36" viewBox="0 0 36 36" fill="none" xmlns="http://www.w3.org/2000/svg">
<g clip-path="url(#clip0_135_1806)">
<path opacity="0.4" d="M28 18V23C28 26 26 28 23 28H13C10 28 8 26 8 23V18C8 15.28 9.64 13.38 12.19 13.06C12.45 13.02 12.72 13 13 13H23C23.26 13 23.51 13.01 23.75 13.05C26.33 13.35 28 15.26 28 18Z" fill="#292D32"/>
<path d="M23.7504 13.05C23.5104 13.01 23.2604 13 23.0004 13H13.0004C12.7204 13 12.4504 13.02 12.1904 13.06C12.3304 12.78 12.5304 12.52 12.7704 12.28L16.0204 9.02C17.3904 7.66 19.6104 7.66 20.9804 9.02L22.7304 10.79C23.3704 11.42 23.7104 12.22 23.7504 13.05Z" fill="#292D32"/>
<path d="M28 18.5H25C23.9 18.5 23 19.4 23 20.5C23 21.6 23.9 22.5 25 22.5H28" fill="#292D32"/>
</g>
<defs>
<clipPath id="clip0_135_1806">
<rect width="36" height="36" fill="white"/>
</clipPath>
</defs>
</svg>
