<svg width="36" height="36" viewBox="0 0 36 36" fill="none" xmlns="http://www.w3.org/2000/svg">
<g clip-path="url(#clip0_1479_32615)">
<path d="M23.53 13.77C23.46 13.76 23.39 13.76 23.32 13.77C21.77 13.72 20.54 12.45 20.54 10.89C20.54 9.3 21.83 8 23.43 8C25.02 8 26.32 9.29 26.32 10.89C26.31 12.45 25.08 13.72 23.53 13.77Z" fill="#292D32"/>
<path d="M26.7896 20.6999C25.6696 21.4499 24.0996 21.7299 22.6496 21.5399C23.0296 20.7199 23.2296 19.8099 23.2396 18.8499C23.2396 17.8499 23.0196 16.8999 22.5996 16.0699C24.0796 15.8699 25.6496 16.1499 26.7796 16.8999C28.3596 17.9399 28.3596 19.6499 26.7896 20.6999Z" fill="#292D32"/>
<path d="M12.4402 13.77C12.5102 13.76 12.5802 13.76 12.6502 13.77C14.2002 13.72 15.4302 12.45 15.4302 10.89C15.4302 9.29 14.1402 8 12.5402 8C10.9502 8 9.66016 9.29 9.66016 10.89C9.66016 12.45 10.8902 13.72 12.4402 13.77Z" fill="#292D32"/>
<path d="M12.5501 18.8501C12.5501 19.8201 12.7601 20.7401 13.1401 21.5701C11.7301 21.7201 10.2601 21.4201 9.18012 20.7101C7.60012 19.6601 7.60012 17.9501 9.18012 16.9001C10.2501 16.1801 11.7601 15.8901 13.1801 16.0501C12.7701 16.8901 12.5501 17.8401 12.5501 18.8501Z" fill="#292D32"/>
<path d="M18.1198 21.87C18.0398 21.86 17.9498 21.86 17.8598 21.87C16.0198 21.81 14.5498 20.3 14.5498 18.44C14.5598 16.54 16.0898 15 17.9998 15C19.8998 15 21.4398 16.54 21.4398 18.44C21.4298 20.3 19.9698 21.81 18.1198 21.87Z" fill="#292D32"/>
<path d="M14.8698 23.9399C13.3598 24.9499 13.3598 26.6099 14.8698 27.6099C16.5898 28.7599 19.4098 28.7599 21.1298 27.6099C22.6398 26.5999 22.6398 24.9399 21.1298 23.9399C19.4198 22.7899 16.5998 22.7899 14.8698 23.9399Z" fill="#292D32"/>
</g>
<defs>
<clipPath id="clip0_1479_32615">
<rect width="36" height="36" fill="white"/>
</clipPath>
</defs>
</svg>
