<svg width="36" height="36" viewBox="0 0 36 36" fill="none" xmlns="http://www.w3.org/2000/svg">
<g clip-path="url(#clip0_1104_508835)">
<path d="M24 9H12C9.79 9 8 10.78 8 12.97V23.03C8 25.22 9.79 27 12 27H24C26.21 27 28 25.22 28 23.03V12.97C28 10.78 26.21 9 24 9ZM14.5 13.17C15.77 13.17 16.81 14.21 16.81 15.48C16.81 16.75 15.77 17.79 14.5 17.79C13.23 17.79 12.19 16.75 12.19 15.48C12.19 14.21 13.23 13.17 14.5 13.17ZM18.37 22.66C18.28 22.76 18.14 22.82 18 22.82H11C10.86 22.82 10.72 22.76 10.63 22.66C10.54 22.56 10.49 22.42 10.5 22.28C10.67 20.6 12.01 19.27 13.69 19.11C14.22 19.06 14.77 19.06 15.3 19.11C16.98 19.27 18.33 20.6 18.49 22.28C18.51 22.42 18.46 22.56 18.37 22.66ZM25 22.75H23C22.59 22.75 22.25 22.41 22.25 22C22.25 21.59 22.59 21.25 23 21.25H25C25.41 21.25 25.75 21.59 25.75 22C25.75 22.41 25.41 22.75 25 22.75ZM25 18.75H21C20.59 18.75 20.25 18.41 20.25 18C20.25 17.59 20.59 17.25 21 17.25H25C25.41 17.25 25.75 17.59 25.75 18C25.75 18.41 25.41 18.75 25 18.75ZM25 14.75H20C19.59 14.75 19.25 14.41 19.25 14C19.25 13.59 19.59 13.25 20 13.25H25C25.41 13.25 25.75 13.59 25.75 14C25.75 14.41 25.41 14.75 25 14.75Z" fill="#292D32"/>
</g>
<defs>
<clipPath id="clip0_1104_508835">
<rect width="36" height="36" fill="white"/>
</clipPath>
</defs>
</svg>
